<svg version="1.1" id="Layer_1" xmlns="http://www.w3.org/2000/svg" xmlns:xlink="http://www.w3.org/1999/xlink" x="0px" y="0px"
	 width="100%" viewBox="0 0 500 500" enable-background="new 0 0 500 500" xml:space="preserve">
<path fill="#2C3E50" opacity="1.000000" stroke="none" 
	d="
M329.000000,501.000000 
	C219.333359,501.000000 110.166718,501.000000 1.000059,501.000000 
	C1.000039,334.333405 1.000039,167.666794 1.000020,1.000148 
	C167.666565,1.000099 334.333130,1.000099 500.999756,1.000049 
	C500.999847,167.666519 500.999847,334.333038 500.999939,500.999786 
	C443.833344,501.000000 386.666656,501.000000 329.000000,501.000000 
M159.997757,146.500000 
	C159.997757,155.307739 159.997757,164.115479 159.997757,173.485489 
	C173.741013,174.403320 187.088699,175.294739 201.015411,176.224823 
	C201.015411,170.556702 200.947510,165.597580 201.029846,160.640961 
	C201.190750,150.955048 204.316498,147.874374 214.066406,147.856216 
	C233.730560,147.819595 253.394836,147.838425 273.059052,147.854553 
	C274.495056,147.855728 275.930939,148.019577 277.959900,148.144226 
	C276.819763,150.153351 275.998962,151.721603 275.068451,153.221802 
	C236.533386,215.349533 197.986237,277.469757 159.459412,339.602570 
	C158.591705,341.001892 157.314178,342.524628 157.288452,344.008179 
	C157.101898,354.770203 157.188232,365.536957 157.188232,376.488770 
	C219.051697,376.488770 280.271759,376.488770 341.467560,376.488770 
	C341.681610,375.683044 341.913971,375.215454 341.914612,374.747498 
	C341.947449,351.084167 341.929779,327.420715 342.018860,303.757629 
	C342.028809,301.122589 340.936768,300.258148 338.505829,300.141388 
	C334.347534,299.941681 330.199890,299.530060 326.044495,299.257568 
	C317.803101,298.717102 309.559509,298.210724 300.995056,297.669952 
	C300.995056,307.775055 301.099670,317.096954 300.964935,326.415344 
	C300.836609,335.291748 297.555664,338.469574 288.834412,338.476532 
	C265.670624,338.495056 242.506836,338.490479 219.343079,338.466461 
	C217.641800,338.464722 215.940735,338.233582 213.654221,338.066223 
	C214.790787,336.029541 215.450943,334.719910 216.223511,333.480347 
	C251.369278,277.088470 286.071106,220.411346 321.975067,164.506241 
	C331.855652,149.121399 337.844299,134.025742 335.855652,115.703575 
	C335.318634,110.755493 334.371643,109.355713 329.354370,109.372284 
	C275.028381,109.551605 220.701599,109.484291 166.375031,109.484306 
	C164.413040,109.484306 162.451065,109.484306 159.998825,109.484306 
	C159.998825,121.909126 159.998825,133.704559 159.997757,146.500000 
M80.634224,369.765961 
	C88.813560,385.527740 114.058159,385.368469 124.757629,377.062408 
	C135.986008,368.345764 138.904419,350.339142 130.976685,337.771149 
	C123.637016,326.135406 105.423599,321.607788 92.230759,328.139435 
	C77.980988,335.194366 72.817848,352.859253 80.634224,369.765961 
z"/>
<path fill="#58A5FD" opacity="1.000000" stroke="none" 
	d="
M159.998291,146.000000 
	C159.998825,133.704559 159.998825,121.909126 159.998825,109.484306 
	C162.451065,109.484306 164.413040,109.484306 166.375031,109.484306 
	C220.701599,109.484291 275.028381,109.551605 329.354370,109.372284 
	C334.371643,109.355713 335.318634,110.755493 335.855652,115.703575 
	C337.844299,134.025742 331.855652,149.121399 321.975067,164.506241 
	C286.071106,220.411346 251.369278,277.088470 216.223511,333.480347 
	C215.450943,334.719910 214.790787,336.029541 213.654221,338.066223 
	C215.940735,338.233582 217.641800,338.464722 219.343079,338.466461 
	C242.506836,338.490479 265.670624,338.495056 288.834412,338.476532 
	C297.555664,338.469574 300.836609,335.291748 300.964935,326.415344 
	C301.099670,317.096954 300.995056,307.775055 300.995056,297.669952 
	C309.559509,298.210724 317.803101,298.717102 326.044495,299.257568 
	C330.199890,299.530060 334.347534,299.941681 338.505829,300.141388 
	C340.936768,300.258148 342.028809,301.122589 342.018860,303.757629 
	C341.929779,327.420715 341.947449,351.084167 341.914612,374.747498 
	C341.913971,375.215454 341.681610,375.683044 341.467560,376.488770 
	C280.271759,376.488770 219.051697,376.488770 157.188232,376.488770 
	C157.188232,365.536957 157.101898,354.770203 157.288452,344.008179 
	C157.314178,342.524628 158.591705,341.001892 159.459412,339.602570 
	C197.986237,277.469757 236.533386,215.349533 275.068451,153.221802 
	C275.998962,151.721603 276.819763,150.153351 277.959900,148.144226 
	C275.930939,148.019577 274.495056,147.855728 273.059052,147.854553 
	C253.394836,147.838425 233.730560,147.819595 214.066406,147.856216 
	C204.316498,147.874374 201.190750,150.955048 201.029846,160.640961 
	C200.947510,165.597580 201.015411,170.556702 201.015411,176.224823 
	C187.088699,175.294739 173.741013,174.403320 159.997757,173.485489 
	C159.997757,164.115479 159.997757,155.307739 159.998291,146.000000 
z"/>
<path fill="#58A5FE" opacity="1.000000" stroke="none" 
	d="
M80.443321,369.443665 
	C72.817848,352.859253 77.980988,335.194366 92.230759,328.139435 
	C105.423599,321.607788 123.637016,326.135406 130.976685,337.771149 
	C138.904419,350.339142 135.986008,368.345764 124.757629,377.062408 
	C114.058159,385.368469 88.813560,385.527740 80.443321,369.443665 
z"/>
</svg>